<svg xmlns="http://www.w3.org/2000/svg" fill="#000000" class="bi bi-arrow-down-circle" viewBox="0 0 16 16" id="Arrow-Down-Circle--Streamline-Bootstrap">
  <desc>
    Arrow Down Circle Streamline Icon: https://streamlinehq.com
  </desc>
  <path fill-rule="evenodd" d="M1 8a7 7 0 1 0 14 0A7 7 0 0 0 1 8m15 0A8 8 0 1 1 0 8a8 8 0 0 1 16 0M8.5 4.5a0.5 0.5 0 0 0 -1 0v5.793L5.354 8.146a0.5 0.5 0 1 0 -0.708 0.708l3 3a0.5 0.5 0 0 0 0.708 0l3 -3a0.5 0.5 0 0 0 -0.708 -0.708L8.5 10.293z" stroke-width="1"></path>
</svg>